<?xml version="1.0" encoding="UTF-8"?> <!-- Generator: Adobe Illustrator 22.1.0, SVG Export Plug-In . SVG Version: 6.00 Build 0) --> <svg xmlns="http://www.w3.org/2000/svg" xmlns:xlink="http://www.w3.org/1999/xlink" version="1.1" id="artwork" x="0px" y="0px" viewBox="0 0 542 113" style="enable-background:new 0 0 542 113;" xml:space="preserve"> <style type="text/css"> .st0{fill:#24325F;} .st1{fill:#3ABAED;} .st2{fill:#223260;} </style> <g> <g> <g> <path class="st0" d="M5.7,79.9c-1.9,0-3.4-1.5-3.4-3.4V54.7c0-1.9,1.5-3.4,3.4-3.4c1.9,0,3.4,1.5,3.4,3.4v21.8 C9.2,78.4,7.6,79.9,5.7,79.9z"></path> <path class="st0" d="M19.7,80.8c-1.9,0-3.4-1.5-3.4-3.4V17.9c0-1.9,1.5-3.4,3.4-3.4c1.9,0,3.4,1.5,3.4,3.4v59.5 C23.1,79.3,21.5,80.8,19.7,80.8z"></path> <path class="st0" d="M33.6,105.4c-1.9,0-3.4-1.5-3.4-3.4V25.2c0-1.9,1.5-3.4,3.4-3.4c1.9,0,3.4,1.5,3.4,3.4V102 C37,103.9,35.5,105.4,33.6,105.4z"></path> <path class="st0" d="M47.5,112.5c-1.9,0-3.4-1.5-3.4-3.4V71.6c0-1.9,1.5-3.4,3.4-3.4c1.9,0,3.4,1.5,3.4,3.4v37.5 C50.9,111,49.4,112.5,47.5,112.5z"></path> <path class="st0" d="M47.5,28.6c-1.9,0-3.4-1.5-3.4-3.4V4.8c0-1.9,1.5-3.4,3.4-3.4c1.9,0,3.4,1.5,3.4,3.4v20.3 C50.9,27,49.4,28.6,47.5,28.6z"></path> <path class="st0" d="M61.4,109.8c-1.9,0-3.4-1.5-3.4-3.4V71.6c0-1.9,1.5-3.4,3.4-3.4c1.9,0,3.4,1.5,3.4,3.4v34.8 C64.8,108.3,63.3,109.8,61.4,109.8z"></path> <path class="st0" d="M61.4,43.3c-1.9,0-3.4-1.5-3.4-3.4V20.2c0-1.9,1.5-3.4,3.4-3.4c1.9,0,3.4,1.5,3.4,3.4v19.7 C64.8,41.8,63.3,43.3,61.4,43.3z"></path> <path class="st0" d="M75.3,90.3c-1.9,0-3.4-1.5-3.4-3.4V9.5c0-1.9,1.5-3.4,3.4-3.4c1.9,0,3.4,1.5,3.4,3.4v77.4 C78.7,88.8,77.2,90.3,75.3,90.3z"></path> <path class="st0" d="M89.2,97.1c-1.9,0-3.4-1.5-3.4-3.4V34.1c0-1.9,1.5-3.4,3.4-3.4c1.9,0,3.4,1.5,3.4,3.4v59.5 C92.7,95.5,91.1,97.1,89.2,97.1z"></path> <path class="st0" d="M103.2,59.2c-1.9,0-3.4-1.5-3.4-3.4V38.5c0-1.9,1.5-3.4,3.4-3.4c1.9,0,3.4,1.5,3.4,3.4v17.2 C106.6,57.7,105,59.2,103.2,59.2z"></path> </g> <path class="st1" d="M10.5,40c0,2.8-2.1,4.9-4.7,4.9C3.1,44.9,1,42.8,1,40c0-2.9,2.1-5,4.7-5C8.4,35,10.5,37.1,10.5,40z"></path> <path class="st1" d="M24.4,92.2c0,2.8-2.1,4.9-4.7,4.9c-2.7,0-4.7-2.1-4.7-4.9c0-2.9,2.1-5,4.7-5C22.4,87.2,24.4,89.3,24.4,92.2z"></path> <path class="st1" d="M38.3,9.5c0,2.8-2.1,4.9-4.7,4.9c-2.7,0-4.7-2.1-4.7-4.9c0-2.9,2.1-5,4.7-5C36.3,4.6,38.3,6.6,38.3,9.5z"></path> <path class="st1" d="M52.2,40c0,2.8-2.1,4.9-4.7,4.9c-2.7,0-4.7-2.1-4.7-4.9c0-2.9,2.1-5,4.7-5C50.2,35,52.2,37.1,52.2,40z"></path> <path class="st1" d="M66.2,5.5c0,2.8-2.1,4.9-4.7,4.9c-2.7,0-4.7-2.1-4.7-4.9c0-2.9,2.1-5,4.7-5C64.1,0.5,66.2,2.6,66.2,5.5z"></path> <path class="st1" d="M80.1,102c0,2.8-2.1,4.9-4.7,4.9c-2.7,0-4.7-2.1-4.7-4.9c0-2.9,2.1-5,4.7-5C78,97.1,80.1,99.1,80.1,102z"></path> <path class="st1" d="M107.9,70.4c0,2.8-2.1,4.9-4.7,4.9c-2.7,0-4.7-2.1-4.7-4.9c0-2.9,2.1-5,4.7-5 C105.9,65.5,107.9,67.5,107.9,70.4z"></path> <path class="st1" d="M94,19.4c0,2.8-2.1,4.9-4.7,4.9c-2.7,0-4.7-2.1-4.7-4.9c0-2.9,2.1-5,4.7-5C91.9,14.4,94,16.5,94,19.4z"></path> </g> <g> <g> <g> <g> <g> <path class="st2" d="M185.8,18.4l-3.2,4c-0.5,0.6-1.4,0.7-2,0.1c-3.6-3.3-8.3-5.3-13-5.3c-10.1,0-18,7.8-18,17.7 c0,10,7.9,17.8,18,17.8c4.6,0,9.3-1.9,13-5.1c0.6-0.5,1.4-0.5,1.9,0.1l3.2,3.6c0.5,0.6,0.5,1.5-0.1,2 c-5,4.5-11.9,7.4-18.5,7.4c-14.8,0-26.3-11.2-26.3-25.7c0-14.4,11.6-25.4,26.5-25.4c6.7,0,13.4,2.6,18.2,6.9 C186.3,17,186.3,17.8,185.8,18.4z"></path> <path class="st2" d="M230.1,41.1c0,11.5-8.1,19.5-20,19.5c-11.9,0-20-7.9-20-19.5c0-11.6,8.1-19.5,20-19.5 C221.9,21.6,230.1,29.5,230.1,41.1z M198.4,41.2c0,7.4,4.8,12.5,11.8,12.5c6.8,0,11.7-5,11.7-12.5c0-7.4-4.8-12.4-11.7-12.4 C203.2,28.8,198.4,33.8,198.4,41.2z"></path> <path class="st2" d="M273.8,56.5c0,11-7.9,18-19.9,18c-5.5,0-10.4-1.6-14.8-4.3c-0.6-0.4-0.8-1.2-0.4-1.9l2.1-3.5 c0.4-0.7,1.3-0.9,2-0.4c3.2,2.1,6.7,3.3,10.8,3.3c7.3,0,12-4.3,12-10.9v-4.8c-2.6,4.2-6.9,6.5-12.7,6.5 c-10.4,0-17.3-7.5-17.3-18.5c0-10.8,6.9-18.2,17-18.2c5.9-0.1,10.3,2.3,13,6.5v-4.8c0-0.8,0.6-1.4,1.4-1.4h5.4 c0.8,0,1.4,0.6,1.4,1.4V56.5z M265.6,40.1c0-6.9-4.5-11.8-11-11.8c-6.6,0-11.1,4.9-11.2,11.8c0.1,6.9,4.5,11.8,11.2,11.8 C261,51.9,265.6,47,265.6,40.1z"></path> <path class="st2" d="M320.2,36.4v22.5c0,0.8-0.6,1.4-1.4,1.4h-5.5c-0.8,0-1.4-0.6-1.4-1.4V38.7c0-5.8-3.5-9.3-9.2-9.3 c-6.3,0.1-10.3,4.5-10.9,10.5v19c0,0.8-0.6,1.4-1.4,1.4h-5.5c-0.8,0-1.4-0.6-1.4-1.4V23.3c0-0.8,0.6-1.4,1.4-1.4h5.5 c0.8,0,1.4,0.6,1.4,1.4v6c2.7-5.3,7.6-7.6,14.1-7.6C314.8,21.6,320.2,27.3,320.2,36.4z"></path> <path class="st2" d="M365.2,44.3h-29c1.3,5.9,5.8,9.6,11.9,9.6c3.7,0,7.1-1.2,9.8-3.5c0.6-0.5,1.4-0.5,2,0.1l2.5,2.7 c0.5,0.5,0.5,1.4,0,1.9c-3.7,3.5-8.8,5.5-14.9,5.5c-11.8,0-19.6-7.9-19.6-19.4c0-11.6,8-19.5,19.4-19.5 C360.7,21.6,366.2,30.4,365.2,44.3z M358,38.2c-0.3-6.2-4.4-10-10.7-10c-6.1,0-10.3,3.8-11.3,10H358z"></path> <path class="st2" d="M394.8,56.8c0.2,0.6-0.1,1.4-0.6,1.7c-2.7,1.4-5.5,2.2-8.4,2.2c-5.8,0-10.7-3.3-10.7-11.2V29.6h-4 c-0.8,0-1.4-0.6-1.4-1.4v-3.4c0-0.8,0.6-1.4,1.4-1.4h4v-9.1c0-0.8,0.6-1.4,1.4-1.4h5.4c0.8,0,1.4,0.6,1.4,1.4v9.1h9.9 c0.8,0,1.4,0.6,1.4,1.4v3.4c0,0.8-0.6,1.4-1.4,1.4h-9.9V48c0,4,1.5,5.2,4.1,5.2c1.4,0,2.8-0.4,4.4-1.1 c0.7-0.3,1.6,0.1,1.8,0.9L394.8,56.8z"></path> <path class="st2" d="M411.2,11c0,2.9-2.1,5-4.8,5c-2.7,0-4.8-2.1-4.8-5c0-3,2.1-5,4.8-5C409.1,5.9,411.2,8,411.2,11z M402.2,58.9V23.3c0-0.8,0.6-1.4,1.4-1.4h5.4c0.8,0,1.4,0.6,1.4,1.4v35.6c0,0.8-0.6,1.4-1.4,1.4h-5.4 C402.8,60.3,402.2,59.7,402.2,58.9z"></path> <path class="st2" d="M429.9,59.4l-13.8-35.6c-0.4-0.9,0.3-1.9,1.3-1.9h5.6c0.6,0,1.1,0.4,1.3,0.9l10.3,29.3l10.2-29.3 c0.2-0.6,0.7-0.9,1.3-0.9h5.3c1,0,1.6,1,1.3,1.9l-13.6,35.6c-0.2,0.5-0.7,0.9-1.3,0.9h-6.7C430.7,60.3,430.1,59.9,429.9,59.4z "></path> <path class="st2" d="M467.5,11c0,2.9-2.1,5-4.8,5c-2.7,0-4.8-2.1-4.8-5c0-3,2.1-5,4.8-5C465.4,5.9,467.5,8,467.5,11z M458.5,58.9V23.3c0-0.8,0.6-1.4,1.4-1.4h5.4c0.8,0,1.4,0.6,1.4,1.4v35.6c0,0.8-0.6,1.4-1.4,1.4h-5.4 C459.1,60.3,458.5,59.7,458.5,58.9z"></path> <path class="st2" d="M499.1,56.8c0.2,0.6-0.1,1.4-0.6,1.7c-2.7,1.4-5.5,2.2-8.4,2.2c-5.8,0-10.7-3.3-10.7-11.2V29.6h-4 c-0.8,0-1.4-0.6-1.4-1.4v-3.4c0-0.8,0.6-1.4,1.4-1.4h4v-9.1c0-0.8,0.6-1.4,1.4-1.4h5.4c0.8,0,1.4,0.6,1.4,1.4v9.1h9.9 c0.8,0,1.4,0.6,1.4,1.4v3.4c0,0.8-0.6,1.4-1.4,1.4h-9.9V48c0,4,1.5,5.2,4.1,5.2c1.4,0,2.8-0.4,4.4-1.1 c0.7-0.3,1.6,0.1,1.8,0.9L499.1,56.8z"></path> <path class="st2" d="M524.1,65.6c-2.4,6.1-6.7,9.1-12.5,9.1c-3.1,0-5.5-0.8-7.9-2.5c-0.6-0.4-0.7-1.2-0.4-1.8l2.2-4.1 c0.4-0.7,1.2-0.9,1.9-0.5c1.3,0.8,2.5,1.1,3.8,1.1c2.5,0,4.5-1.4,5.8-4.3l1.3-2.9l-15.1-35.9c-0.4-0.9,0.3-1.9,1.3-1.9h5.6 c0.6,0,1.1,0.3,1.3,0.9L522.6,51L533,22.8c0.2-0.5,0.7-0.9,1.3-0.9h5.3c1,0,1.7,1,1.3,1.9L524.1,65.6z"></path> </g> </g> </g> </g> <g> <path class="st2" d="M143.2,104.8V76.4h3.4l16,22.6h0.1V76.4h3.5v28.4h-3.5l-15.9-22.4h-0.1v22.4H143.2z"></path> <path class="st2" d="M182.9,95.1c0-1.4,0.2-2.8,0.7-4c0.5-1.2,1.1-2.3,2-3.2c0.8-0.9,1.8-1.5,3-2c1.1-0.5,2.4-0.7,3.7-0.7 c1.8,0,3.4,0.4,4.7,1.2c1.4,0.8,2.4,2,3.2,3.4s1.1,3.1,1.1,5c0,0.5,0,0.9-0.1,1.3h-15c0.2,1.8,0.9,3.3,2.1,4.4 c1.2,1.1,2.6,1.6,4.4,1.6c1.2,0,2.2-0.2,3.1-0.7c0.9-0.5,1.7-1.1,2.4-1.9l2.3,1.9c-0.9,1.1-2,2-3.3,2.7s-2.9,1-4.6,1 c-1.4,0-2.6-0.2-3.8-0.7s-2.2-1.2-3.1-2s-1.5-1.9-2-3.2S182.9,96.6,182.9,95.1z M186.3,93.4h11.8c-0.3-1.6-0.9-2.9-1.9-3.9 c-1-1-2.3-1.5-3.8-1.5c-1.5,0-2.9,0.5-4,1.4C187.3,90.5,186.6,91.8,186.3,93.4z"></path> <path class="st2" d="M216.9,97V85.4h3.2V96c0,2.2,0.4,3.7,1.2,4.7c0.8,0.9,2,1.4,3.6,1.4c0.8,0,1.5-0.2,2.2-0.5s1.3-0.8,1.8-1.4 c0.5-0.6,0.9-1.4,1.3-2.3c0.3-0.9,0.5-2,0.5-3.1v-9.4h3.2v19.5h-3.2v-3.2h-0.1c-0.8,1.1-1.7,2-2.8,2.6s-2.3,0.9-3.6,0.9 c-2.3,0-4.1-0.7-5.4-2C217.6,101.7,216.9,99.7,216.9,97z"></path> <path class="st2" d="M251.1,104.8V85.4h3.2v3.4h0.1c0.7-1.2,1.6-2.1,2.7-2.7c1.1-0.6,2.3-0.9,3.6-0.9c0.4,0,0.6,0,0.8,0v3.6 c-0.5,0-0.9-0.1-1.3-0.1c-1.8,0-3.2,0.6-4.3,1.9c-1.1,1.3-1.6,2.9-1.6,4.9v9.4H251.1z"></path> <path class="st2" d="M274.7,95.1c0-1.4,0.2-2.7,0.7-3.9c0.5-1.2,1.2-2.3,2-3.2c0.9-0.9,1.9-1.6,3.2-2.1c1.3-0.5,2.6-0.8,4.1-0.8 c1.9,0,3.6,0.4,5.1,1.2c1.5,0.8,2.7,2,3.6,3.5c0.9,1.5,1.3,3.3,1.3,5.2c0,1.9-0.4,3.7-1.3,5.2s-2.1,2.7-3.6,3.5 c-1.5,0.8-3.2,1.2-5.1,1.2c-1.5,0-2.8-0.3-4.1-0.8c-1.3-0.5-2.3-1.2-3.2-2.1c-0.9-0.9-1.5-1.9-2-3.2 C274.9,97.8,274.7,96.5,274.7,95.1z M277.9,95.1c0,1.3,0.3,2.5,0.9,3.5c0.6,1.1,1.4,1.9,2.4,2.5s2.2,0.9,3.5,0.9 c1.2,0,2.4-0.3,3.4-0.9c1-0.6,1.8-1.4,2.4-2.5c0.6-1.1,0.9-2.3,0.9-3.6c0-1.4-0.3-2.6-0.9-3.7c-0.6-1.1-1.4-1.9-2.4-2.5 c-1-0.6-2.2-0.9-3.4-0.9c-1.3,0-2.5,0.3-3.6,0.9c-1,0.6-1.8,1.5-2.4,2.5C278.2,92.6,277.9,93.8,277.9,95.1z"></path> <path class="st2" d="M309.2,102.2l1.7-2.5c0.8,0.8,1.7,1.3,2.6,1.7c0.9,0.4,2,0.6,3.3,0.6c1.1,0,2-0.2,2.7-0.7 c0.7-0.5,1-1.1,1-1.8c0-0.2,0-0.4-0.1-0.5s-0.1-0.3-0.2-0.5c-0.1-0.1-0.2-0.3-0.3-0.4c-0.1-0.1-0.3-0.2-0.5-0.4 c-0.2-0.1-0.4-0.2-0.6-0.3c-0.2-0.1-0.4-0.2-0.7-0.3c-0.3-0.1-0.6-0.2-0.8-0.3c-0.2-0.1-0.5-0.2-0.9-0.3 c-0.2-0.1-0.4-0.1-0.5-0.2c-0.7-0.2-1.3-0.5-1.8-0.7c-0.5-0.2-1-0.5-1.6-0.8c-0.5-0.3-1-0.7-1.3-1.1c-0.3-0.4-0.6-0.9-0.8-1.4 c-0.2-0.6-0.3-1.2-0.3-1.9c0-1.5,0.6-2.7,1.8-3.7c1.2-1,2.8-1.5,4.6-1.5c2.5,0,4.8,0.8,6.7,2.4l-1.7,2.6c-1.6-1.3-3.3-2-5.2-2 c-0.8,0-1.5,0.2-2.1,0.6c-0.6,0.4-0.9,1-0.9,1.6c0,0.4,0.1,0.7,0.3,1s0.4,0.6,0.8,0.8c0.4,0.2,0.7,0.5,1.1,0.6 c0.4,0.2,0.9,0.4,1.5,0.6c0.2,0.1,0.5,0.2,0.9,0.4c0.7,0.3,1.2,0.5,1.5,0.6c0.3,0.1,0.7,0.3,1.2,0.5s0.9,0.4,1.1,0.6 s0.5,0.4,0.8,0.7c0.3,0.3,0.5,0.6,0.7,0.9c0.1,0.3,0.3,0.7,0.4,1.1c0.1,0.4,0.2,0.9,0.2,1.4c0,0.8-0.1,1.5-0.4,2.2 c-0.3,0.7-0.7,1.3-1.3,1.8c-0.6,0.5-1.3,0.9-2.2,1.2c-0.9,0.3-1.9,0.4-3.1,0.4C313.9,105.1,311.3,104.1,309.2,102.2z"></path> <path class="st2" d="M338.4,95.1c0-1.9,0.4-3.7,1.2-5.2c0.8-1.5,2-2.7,3.4-3.6c1.5-0.8,3.2-1.3,5-1.3c1.5,0,2.9,0.3,4.3,0.9 s2.6,1.5,3.5,2.6l-2.2,2c-0.6-0.8-1.4-1.4-2.4-1.8s-2-0.7-3.1-0.7c-2,0-3.5,0.7-4.8,2c-1.2,1.3-1.8,3-1.8,5.1 c0,2.1,0.6,3.8,1.8,5.1s2.8,1.9,4.8,1.9c1.1,0,2.1-0.2,3.1-0.6s1.8-1,2.4-1.7l2.2,2c-0.9,1-2,1.8-3.4,2.4c-1.4,0.6-3,0.9-4.6,0.9 c-1.8,0-3.5-0.4-5-1.2c-1.5-0.8-2.6-2-3.4-3.5C338.8,98.8,338.4,97.1,338.4,95.1z"></path> <path class="st2" d="M371.3,79.5c0-0.6,0.2-1.2,0.7-1.6c0.4-0.4,1-0.7,1.6-0.7c0.6,0,1.2,0.2,1.6,0.7c0.4,0.4,0.7,1,0.7,1.6 c0,0.6-0.2,1.2-0.7,1.6c-0.4,0.4-1,0.7-1.6,0.7c-0.7,0-1.2-0.2-1.6-0.7C371.5,80.6,371.3,80.1,371.3,79.5z M371.9,104.8V85.4h3.2 v19.5H371.9z"></path> <path class="st2" d="M391.6,95.1c0-1.4,0.2-2.8,0.7-4c0.5-1.2,1.1-2.3,2-3.2c0.8-0.9,1.8-1.5,3-2c1.1-0.5,2.4-0.7,3.7-0.7 c1.8,0,3.4,0.4,4.7,1.2c1.4,0.8,2.4,2,3.2,3.4s1.1,3.1,1.1,5c0,0.5,0,0.9-0.1,1.3h-15c0.2,1.8,0.9,3.3,2.1,4.4 c1.2,1.1,2.6,1.6,4.4,1.6c1.2,0,2.2-0.2,3.1-0.7c0.9-0.5,1.7-1.1,2.4-1.9l2.3,1.9c-0.9,1.1-2,2-3.3,2.7s-2.9,1-4.6,1 c-1.4,0-2.6-0.2-3.8-0.7s-2.2-1.2-3.1-2s-1.5-1.9-2-3.2S391.6,96.6,391.6,95.1z M395,93.4h11.8c-0.3-1.6-0.9-2.9-1.9-3.9 c-1-1-2.3-1.5-3.8-1.5c-1.5,0-2.9,0.5-4,1.4C396,90.5,395.3,91.8,395,93.4z"></path> <path class="st2" d="M426,104.8V85.4h3.2v3.4h0.1c0.8-1.2,1.8-2,3-2.7c1.2-0.6,2.6-0.9,4-0.9c2.2,0,3.9,0.7,5.1,2.1 s1.9,3.4,1.9,6.1v11.6h-3.2V94.2c0-1.1-0.1-2.1-0.3-2.9c-0.2-0.8-0.6-1.4-1-1.9s-0.9-0.8-1.5-1c-0.6-0.2-1.2-0.3-2-0.3 c-1.8,0-3.3,0.6-4.4,1.9c-1.1,1.3-1.7,3-1.7,5.1v9.7H426z"></path> <path class="st2" d="M459.2,95.1c0-1.9,0.4-3.7,1.2-5.2c0.8-1.5,2-2.7,3.4-3.6c1.5-0.8,3.2-1.3,5-1.3c1.5,0,2.9,0.3,4.3,0.9 s2.6,1.5,3.5,2.6l-2.2,2c-0.6-0.8-1.4-1.4-2.4-1.8s-2-0.7-3.1-0.7c-2,0-3.5,0.7-4.8,2c-1.2,1.3-1.8,3-1.8,5.1 c0,2.1,0.6,3.8,1.8,5.1s2.8,1.9,4.8,1.9c1.1,0,2.1-0.2,3.1-0.6s1.8-1,2.4-1.7l2.2,2c-0.9,1-2,1.8-3.4,2.4c-1.4,0.6-3,0.9-4.6,0.9 c-1.8,0-3.5-0.4-5-1.2c-1.5-0.8-2.6-2-3.4-3.5C459.6,98.8,459.2,97.1,459.2,95.1z"></path> <path class="st2" d="M491.2,95.1c0-1.4,0.2-2.8,0.7-4c0.5-1.2,1.1-2.3,2-3.2c0.8-0.9,1.8-1.5,3-2c1.1-0.5,2.4-0.7,3.7-0.7 c1.8,0,3.4,0.4,4.7,1.2c1.4,0.8,2.4,2,3.2,3.4s1.1,3.1,1.1,5c0,0.5,0,0.9-0.1,1.3h-15c0.2,1.8,0.9,3.3,2.1,4.4 c1.2,1.1,2.6,1.6,4.4,1.6c1.2,0,2.2-0.2,3.1-0.7c0.9-0.5,1.7-1.1,2.4-1.9l2.3,1.9c-0.9,1.1-2,2-3.3,2.7s-2.9,1-4.6,1 c-1.4,0-2.6-0.2-3.8-0.7s-2.2-1.2-3.1-2s-1.5-1.9-2-3.2S491.2,96.6,491.2,95.1z M494.6,93.4h11.8c-0.3-1.6-0.9-2.9-1.9-3.9 c-1-1-2.3-1.5-3.8-1.5c-1.5,0-2.9,0.5-4,1.4C495.6,90.5,494.9,91.8,494.6,93.4z"></path> <path class="st2" d="M524,102.2l1.7-2.5c0.8,0.8,1.7,1.3,2.6,1.7c0.9,0.4,2,0.6,3.3,0.6c1.1,0,2-0.2,2.7-0.7c0.7-0.5,1-1.1,1-1.8 c0-0.2,0-0.4-0.1-0.5s-0.1-0.3-0.2-0.5c-0.1-0.1-0.2-0.3-0.3-0.4c-0.1-0.1-0.3-0.2-0.5-0.4c-0.2-0.1-0.4-0.2-0.6-0.3 c-0.2-0.1-0.4-0.2-0.7-0.3c-0.3-0.1-0.6-0.2-0.8-0.3c-0.2-0.1-0.5-0.2-0.9-0.3c-0.2-0.1-0.4-0.1-0.5-0.2 c-0.7-0.2-1.3-0.5-1.8-0.7c-0.5-0.2-1-0.5-1.6-0.8c-0.5-0.3-1-0.7-1.3-1.1c-0.3-0.4-0.6-0.9-0.8-1.4c-0.2-0.6-0.3-1.2-0.3-1.9 c0-1.5,0.6-2.7,1.8-3.7c1.2-1,2.8-1.5,4.6-1.5c2.5,0,4.8,0.8,6.7,2.4l-1.7,2.6c-1.6-1.3-3.3-2-5.2-2c-0.8,0-1.5,0.2-2.1,0.6 c-0.6,0.4-0.9,1-0.9,1.6c0,0.4,0.1,0.7,0.3,1s0.4,0.6,0.8,0.8c0.4,0.2,0.7,0.5,1.1,0.6c0.4,0.2,0.9,0.4,1.5,0.6 c0.2,0.1,0.5,0.2,0.9,0.4c0.7,0.3,1.2,0.5,1.5,0.6c0.3,0.1,0.7,0.3,1.2,0.5s0.9,0.4,1.1,0.6s0.5,0.4,0.8,0.7 c0.3,0.3,0.5,0.6,0.7,0.9c0.1,0.3,0.3,0.7,0.4,1.1c0.1,0.4,0.2,0.9,0.2,1.4c0,0.8-0.1,1.5-0.4,2.2c-0.3,0.7-0.7,1.3-1.3,1.8 c-0.6,0.5-1.3,0.9-2.2,1.2c-0.9,0.3-1.9,0.4-3.1,0.4C528.6,105.1,526.1,104.1,524,102.2z"></path> </g> </g> </g> </svg> 