<svg width="137" height="24" viewBox="0 0 137 24" fill="none" xmlns="http://www.w3.org/2000/svg">
<path d="M0 19.1252H2.49965V20.607H0V19.1252Z" fill="#F63E7C"/>
<path fill-rule="evenodd" clip-rule="evenodd" d="M1.24982 2.82549L2.49965 5.29514L0 5.29514L1.24982 2.82549Z" fill="#F63E7C"/>
<path d="M0 5.78906H2.49965V18.6313H0V5.78906Z" fill="#F63E7C"/>
<path fill-rule="evenodd" clip-rule="evenodd" d="M4.99925 4.8012L6.99897 2.82547L14.9978 11.2223L6.99897 20.607L4.99925 18.6313L11.1889 11.2223L4.99925 4.8012Z" fill="#F63E7C"/>
<path d="M24.0351 16.9627L32.7072 6.72726H24.1765V5.83022H34.0269V6.65826L25.3783 16.8937H33.9798V17.7908H24.0351V16.9627Z" fill="#212121"/>
<path d="M41.5576 18.0208C40.6935 18.0208 39.8923 17.8598 39.1539 17.5378C38.4155 17.2004 37.7714 16.7481 37.2215 16.1807C36.6874 15.598 36.2632 14.931 35.949 14.1796C35.6505 13.4282 35.5012 12.6232 35.5012 11.7645C35.5012 10.9211 35.6505 10.1314 35.949 9.39538C36.2632 8.64402 36.6874 7.99232 37.2215 7.44029C37.7557 6.87294 38.3841 6.42825 39.1068 6.10623C39.8452 5.78422 40.6385 5.62321 41.4869 5.62321C42.351 5.62321 43.1522 5.79189 43.8906 6.12923C44.629 6.45125 45.2653 6.89594 45.7994 7.46329C46.3336 8.01532 46.7499 8.66702 47.0484 9.41838C47.3469 10.1544 47.4961 10.9365 47.4961 11.7645C47.4961 11.8412 47.4961 11.9408 47.4961 12.0635C47.4961 12.1708 47.4883 12.2398 47.4726 12.2705H36.7266C36.7738 12.9605 36.9387 13.6046 37.2215 14.2026C37.5043 14.7853 37.8578 15.2913 38.282 15.7207C38.7219 16.15 39.2246 16.4874 39.7902 16.7327C40.3558 16.9781 40.9606 17.1007 41.6047 17.1007C42.0289 17.1007 42.4452 17.0471 42.8537 16.9397C43.2622 16.8171 43.6392 16.656 43.9849 16.4567C44.3462 16.2574 44.6604 16.0197 44.9275 15.7437C45.2103 15.4523 45.4302 15.138 45.5873 14.8006L46.6242 15.0766C46.4514 15.506 46.1922 15.9047 45.8465 16.2727C45.5166 16.6254 45.1239 16.9321 44.6683 17.1927C44.2284 17.4534 43.7414 17.6528 43.2072 17.7908C42.673 17.9441 42.1232 18.0208 41.5576 18.0208ZM46.365 11.3505C46.3179 10.6451 46.1529 10.0011 45.8701 9.41838C45.603 8.83569 45.2496 8.33733 44.8097 7.92332C44.3855 7.49396 43.8906 7.16428 43.325 6.93427C42.7594 6.68893 42.1546 6.56625 41.5105 6.56625C40.8663 6.56625 40.2615 6.68893 39.6959 6.93427C39.1303 7.16428 38.6276 7.49396 38.1877 7.92332C37.7635 8.33733 37.4179 8.84336 37.1508 9.44139C36.8995 10.0241 36.7502 10.6604 36.7031 11.3505H46.365Z" fill="#212121"/>
<path d="M55.8857 6.86527C54.786 6.89594 53.8198 7.21795 52.9871 7.83131C52.1702 8.42934 51.5968 9.25738 51.2668 10.3154V17.7908H50.0886V5.83022H51.2197V8.77435C51.6439 7.93098 52.2016 7.24862 52.8929 6.72726C53.5998 6.19057 54.3539 5.88389 55.1552 5.80722C55.3123 5.79189 55.4537 5.78422 55.5793 5.78422C55.705 5.78422 55.8071 5.78422 55.8857 5.78422V6.86527Z" fill="#212121"/>
<path d="M62.6362 18.0208C61.7721 18.0208 60.9709 17.8598 60.2325 17.5378C59.5098 17.2004 58.8814 16.7481 58.3472 16.1807C57.8131 15.6133 57.3967 14.954 57.0982 14.2026C56.7997 13.4512 56.6505 12.6615 56.6505 11.8335C56.6505 10.9901 56.7997 10.1928 57.0982 9.44139C57.4124 8.69002 57.8366 8.03065 58.3708 7.46329C58.9049 6.89594 59.5333 6.45125 60.256 6.12923C60.9944 5.79189 61.7878 5.62321 62.6362 5.62321C63.4845 5.62321 64.27 5.79189 64.9927 6.12923C65.7154 6.45125 66.3438 6.89594 66.878 7.46329C67.4278 8.03065 67.852 8.69002 68.1505 9.44139C68.4647 10.1928 68.6218 10.9901 68.6218 11.8335C68.6218 12.6615 68.4647 13.4512 68.1505 14.2026C67.852 14.954 67.4357 15.6133 66.9015 16.1807C66.3674 16.7481 65.7311 17.2004 64.9927 17.5378C64.27 17.8598 63.4845 18.0208 62.6362 18.0208ZM57.8288 11.8795C57.8288 12.5849 57.9544 13.2519 58.2058 13.8806C58.4572 14.4939 58.795 15.0306 59.2191 15.4907C59.659 15.9507 60.1696 16.3187 60.7509 16.5947C61.3322 16.8554 61.9528 16.9857 62.6126 16.9857C63.2724 16.9857 63.893 16.8554 64.4743 16.5947C65.0556 16.3187 65.5662 15.943 66.006 15.4677C66.4459 14.9923 66.7916 14.4479 67.0429 13.8346C67.2943 13.2059 67.42 12.5312 67.42 11.8105C67.42 11.1051 67.2943 10.4458 67.0429 9.8324C66.7916 9.20371 66.4459 8.65935 66.006 8.19933C65.5662 7.72397 65.0556 7.34829 64.4743 7.07228C63.9087 6.79626 63.296 6.65826 62.6362 6.65826C61.9763 6.65826 61.3558 6.79626 60.7745 7.07228C60.1932 7.34829 59.6826 7.72397 59.2427 8.19933C58.8185 8.67468 58.4729 9.23438 58.2058 9.87841C57.9544 10.5071 57.8288 11.1741 57.8288 11.8795Z" fill="#212121"/>
<path d="M81.4603 17.7908H80.282V11.1205C80.282 8.16099 79.2687 6.68126 77.2421 6.68126C76.7393 6.68126 76.2445 6.77326 75.7574 6.95727C75.2861 7.14128 74.8384 7.40196 74.4142 7.73931C74.0057 8.07666 73.6444 8.47534 73.3302 8.93536C73.016 9.38005 72.7803 9.86307 72.6232 10.3844V17.7908H71.4449V1H72.6232V8.68235C73.1259 7.74697 73.8172 7.00327 74.697 6.45125C75.5925 5.89922 76.5508 5.62321 77.572 5.62321C78.2475 5.62321 78.8288 5.74588 79.3159 5.99123C79.8029 6.23657 80.2035 6.58925 80.5177 7.04928C80.8476 7.5093 81.0833 8.06899 81.2247 8.72835C81.3818 9.37238 81.4603 10.1007 81.4603 10.9135V17.7908Z" fill="#212121"/>
<path d="M90.2308 18.0208C89.3667 18.0208 88.5655 17.8598 87.8271 17.5378C87.0887 17.2004 86.4446 16.7481 85.8947 16.1807C85.3606 15.598 84.9364 14.931 84.6222 14.1796C84.3237 13.4282 84.1744 12.6232 84.1744 11.7645C84.1744 10.9211 84.3237 10.1314 84.6222 9.39538C84.9364 8.64402 85.3606 7.99232 85.8947 7.44029C86.4289 6.87294 87.0573 6.42825 87.78 6.10623C88.5184 5.78422 89.3117 5.62321 90.1601 5.62321C91.0242 5.62321 91.8254 5.79189 92.5638 6.12923C93.3022 6.45125 93.9385 6.89594 94.4726 7.46329C95.0068 8.01532 95.4231 8.66702 95.7216 9.41838C96.0201 10.1544 96.1693 10.9365 96.1693 11.7645C96.1693 11.8412 96.1693 11.9408 96.1693 12.0635C96.1693 12.1708 96.1615 12.2398 96.1458 12.2705H85.3998C85.447 12.9605 85.6119 13.6046 85.8947 14.2026C86.1775 14.7853 86.531 15.2913 86.9552 15.7207C87.3951 16.15 87.8978 16.4874 88.4634 16.7327C89.0289 16.9781 89.6338 17.1007 90.2779 17.1007C90.7021 17.1007 91.1184 17.0471 91.5269 16.9397C91.9354 16.8171 92.3124 16.656 92.6581 16.4567C93.0194 16.2574 93.3336 16.0197 93.6007 15.7437C93.8835 15.4523 94.1034 15.138 94.2605 14.8006L95.2974 15.0766C95.1246 15.506 94.8654 15.9047 94.5197 16.2727C94.1898 16.6254 93.7971 16.9321 93.3415 17.1927C92.9016 17.4534 92.4145 17.6528 91.8804 17.7908C91.3462 17.9441 90.7964 18.0208 90.2308 18.0208ZM95.0382 11.3505C94.9911 10.6451 94.8261 10.0011 94.5433 9.41838C94.2762 8.83569 93.9228 8.33733 93.4829 7.92332C93.0587 7.49396 92.5638 7.16428 91.9982 6.93427C91.4326 6.68893 90.8278 6.56625 90.1837 6.56625C89.5395 6.56625 88.9347 6.68893 88.3691 6.93427C87.8035 7.16428 87.3008 7.49396 86.8609 7.92332C86.4367 8.33733 86.0911 8.84336 85.824 9.44139C85.5727 10.0241 85.4234 10.6604 85.3763 11.3505H95.0382Z" fill="#212121"/>
<path d="M98.7617 17.7908V5.83022H99.94V17.7908H98.7617ZM98.7617 3.1161V1H99.94V3.1161H98.7617Z" fill="#212121"/>
<path d="M108.589 17.9748C107.741 17.9748 106.963 17.8061 106.256 17.4688C105.549 17.1161 104.937 16.656 104.418 16.0887C103.916 15.506 103.515 14.8466 103.216 14.1106C102.934 13.3746 102.792 12.6155 102.792 11.8335C102.792 11.0208 102.926 10.2388 103.193 9.48739C103.476 8.73602 103.868 8.07666 104.371 7.5093C104.874 6.9266 105.471 6.46658 106.162 6.12923C106.869 5.79189 107.647 5.62321 108.495 5.62321C109.563 5.62321 110.49 5.89922 111.276 6.45125C112.077 6.98794 112.753 7.6473 113.302 8.42934V5.83022H114.387V18.0208C114.387 18.8335 114.229 19.5465 113.915 20.1599C113.601 20.7732 113.177 21.2793 112.643 21.6779C112.124 22.092 111.512 22.3986 110.805 22.598C110.113 22.8127 109.383 22.92 108.613 22.92C107.906 22.92 107.27 22.851 106.704 22.713C106.139 22.5903 105.636 22.4063 105.196 22.161C104.772 21.931 104.387 21.6396 104.041 21.2869C103.711 20.9496 103.421 20.5739 103.169 20.1599L103.97 19.6308C104.458 20.4436 105.117 21.0339 105.95 21.4019C106.783 21.7853 107.67 21.977 108.613 21.977C109.241 21.977 109.83 21.8926 110.38 21.7239C110.946 21.5553 111.433 21.3023 111.841 20.9649C112.266 20.6429 112.596 20.2365 112.831 19.7459C113.083 19.2552 113.208 18.6801 113.208 18.0208V15.3987C112.705 16.1807 112.038 16.8094 111.205 17.2847C110.372 17.7448 109.501 17.9748 108.589 17.9748ZM108.872 16.9857C109.391 16.9857 109.893 16.8937 110.38 16.7097C110.883 16.5104 111.331 16.2574 111.724 15.9507C112.132 15.644 112.462 15.299 112.713 14.9156C112.98 14.5323 113.145 14.1489 113.208 13.7656V9.8324C113.02 9.37238 112.768 8.9507 112.454 8.56735C112.14 8.16866 111.779 7.83131 111.37 7.5553C110.977 7.27929 110.545 7.06461 110.074 6.91127C109.618 6.7426 109.155 6.65826 108.684 6.65826C107.945 6.65826 107.285 6.8116 106.704 7.11828C106.123 7.42496 105.628 7.82364 105.219 8.31433C104.827 8.80502 104.52 9.36471 104.3 9.99341C104.096 10.6068 103.994 11.2278 103.994 11.8565C103.994 12.5465 104.12 13.1982 104.371 13.8116C104.622 14.4249 104.968 14.9693 105.408 15.4447C105.848 15.92 106.366 16.2957 106.963 16.5717C107.56 16.8477 108.197 16.9857 108.872 16.9857Z" fill="#212121"/>
<path d="M128.085 17.7908H126.907V11.1205C126.907 8.16099 125.894 6.68126 123.867 6.68126C123.364 6.68126 122.869 6.77326 122.382 6.95727C121.911 7.14128 121.463 7.40196 121.039 7.73931C120.631 8.07666 120.269 8.47534 119.955 8.93536C119.641 9.38005 119.405 9.86307 119.248 10.3844V17.7908H118.07V1H119.248V8.68235C119.751 7.74697 120.442 7.00327 121.322 6.45125C122.217 5.89922 123.176 5.62321 124.197 5.62321C124.873 5.62321 125.454 5.74588 125.941 5.99123C126.428 6.23657 126.829 6.58925 127.143 7.04928C127.473 7.5093 127.708 8.06899 127.85 8.72835C128.007 9.37238 128.085 10.1007 128.085 10.9135V17.7908Z" fill="#212121"/>
<path d="M137 17.2157C136.937 17.2464 136.827 17.3077 136.67 17.3997C136.529 17.4764 136.34 17.5531 136.104 17.6298C135.885 17.7064 135.633 17.7754 135.35 17.8368C135.068 17.8981 134.761 17.9288 134.431 17.9288C134.101 17.9288 133.787 17.8828 133.489 17.7908C133.206 17.6988 132.955 17.5608 132.735 17.3767C132.515 17.1927 132.342 16.9704 132.216 16.7097C132.09 16.449 132.028 16.1424 132.028 15.7897V6.77326H130.307V5.83022H132.028V1.73603H133.206V5.83022H136.057V6.77326H133.206V15.5137C133.206 15.9583 133.363 16.2957 133.677 16.5257C133.991 16.7404 134.345 16.8477 134.738 16.8477C135.225 16.8477 135.641 16.7711 135.987 16.6177C136.348 16.449 136.568 16.3417 136.646 16.2957L137 17.2157Z" fill="#212121"/>
</svg>
